
[img]http://img210.imageshack.us/img210/794/legendguardians.jpg[/img]
[code]
 Legend of the Guardians The Owls of Ga'Hoole TS XViD - IMAGiNE
********************************************************************************************************************

Ripper ...........: IMAGiNE                                        IMDB Rating.......:7.2/10                             
Video Codec.......: XVID                                         Release Date......:04/10/10
Audio Codec.......:mp3                                           Theatre Date......:24/09/10
Audio Bitrate.....:128                                             Runtime.......:1h 28mn
Subtitles.........:NIL                                                 Language..........:ENGLISH
Resolution...... 640 x 272                                     IMDb URL..........:http://www.imdb.com/title/tt1219342/


DETAILS:

Video
ID                               : 0
Format                           : MPEG-4 Visual
Format profile                   : Advanced Simple@L5
Format settings, BVOP            : Yes
Format settings, QPel            : No
Format settings, GMC             : No warppoints
Format settings, Matrix          : Default (MPEG)
Muxing mode                      : Packed bitstream
Codec ID                         : XVID
Codec ID/Hint                    : XviD
Duration                         : 1h 28mn
Bit rate                         : 975 Kbps
Width                            : 640 pixels
Height                           : 272 pixels
Display aspect ratio             : 2.35
Frame rate                       : 25.000 fps
Resolution                       : 24 bits
Colorimetry                      : 4:2:0
Scan type                        : Progressive
Bits/(Pixel*Frame)               : 0.224
Stream size                      : 615 MiB (88%)
Writing library                  : XviD 1.2.1 (UTC 2008-12-04)

Audio
ID                               : 1
Format                           : MPEG Audio
Format version                   : Version 1
Format profile                   : Layer 3
Codec ID                         : 55
Codec ID/Hint                    : MP3
Duration                         : 1h 28mn
Bit rate mode                    : Constant
Bit rate                         : 128 Kbps
Channel(s)                       : 2 channels
Sampling rate                    : 44.1 KHz
Resolution                       : 16 bits
Stream size                      : 80.7 MiB (12%)
Alignment                        : Split accross interleaves
Interleave, duration             : 40 ms (1.00 video frame)
Interleave, preload duration     : 500 ms



SOURCES:

VIDEO:Legend of the Guardians russian video..................Thanks 
AUDIO:OWN 

NOTES:

IMAGiNE bringing you another release..........Legend of the Guardians

First we took the russian video,which wasn't too bad but had faults......lots of glares,too much chroma,weak
contrast and cropped a fair bit.
We tried to fix most of the stuff.....increased the contrast,lowered the chroma,toned down the glares and we also 
resized it to give it a 0.1% AR error correction compared to it's 0.8% in it's original res.
The cropping .....well nothing we can do about that 
The audi ois our own line.....not the best we've had but decent enough and much better than the cam audio so ....
Syncing was a bitch aswell......not easy syncing to owls mouths 

Enjoy folks 
[/code]
Screens:
[img]http://img337.imageshack.us/img337/4871/11316600.png[/img]
[img]http://img691.imageshack.us/img691/2799/20671822.png[/img]
[img]http://img844.imageshack.us/img844/8959/58273248.pn[/img]g
[img]http://img811.imageshack.us/img811/7872/94859045.png[/img]
